<svg xmlns="http://www.w3.org/2000/svg" version="1.1" xmlns:xlink="http://www.w3.org/1999/xlink" xmlns:svgjs="http://svgjs.dev/svgjs" width="2000" height="550" viewBox="0 0 2000 550"><g transform="matrix(1,0,0,1,-1.212097053807497,0.31809908915784035)"><svg viewBox="0 0 396 109" data-background-color="#ffffff" preserveAspectRatio="xMidYMid meet" height="550" width="2000" xmlns="http://www.w3.org/2000/svg" xmlns:xlink="http://www.w3.org/1999/xlink"><defs></defs><g id="tight-bounds" transform="matrix(1,0,0,1,0.23999521665388102,-0.06304145585127685)"><svg viewBox="0 0 395.52 109.12608291170257" height="109.12608291170257" width="395.52"><g><svg viewBox="0 0 689.1626902374232 190.14367130486713" height="109.12608291170257" width="395.52"><g><rect width="7.8919933462198415" height="190.14367130486713" x="265.0910284456017" y="0" fill="#000000" opacity="1" stroke-width="0" stroke="transparent" fill-opacity="1" class="rect-o-0" data-fill-palette-color="primary" rx="1%" id="o-0" data-palette-color="#232b2b"></rect></g><g transform="matrix(1,0,0,1,293.6426902374232,0.4729942072260229)"><svg viewBox="0 0 395.52000000000004 189.19768289041508" height="189.19768289041508" width="395.52000000000004"><g><svg viewBox="0 0 395.52000000000004 189.19768289041508" height="189.19768289041508" width="395.52000000000004"><g><svg viewBox="0 0 395.52000000000004 189.19768289041508" height="189.19768289041508" width="395.52000000000004"><g transform="matrix(1,0,0,1,0,0)"><svg width="395.52000000000004" viewBox="0.9499959945678711 -36.349998474121094 167.4499969482422 77.0999984741211" height="189.19768289041508" data-palette-color="#232b2b"><svg></svg><svg></svg><g class="undefined-text-0" data-fill-palette-color="primary" id="text-0"><path d="M7.3-36h14.5c3.8 0 6.5 0.833 8.1 2.5v0c1.2 1.267 1.8 2.867 1.8 4.8v0c0 0.667-0.067 1.367-0.2 2.1v0l-0.7 3.9c-0.4 2.167-1.09 3.917-2.07 5.25-0.987 1.333-2.08 2.283-3.28 2.85v0l4.55 14.6h-10.1l-4.2-13.45h-3.1l-2.05 13.45h-9.6zM18.65-28.2v0h-3.75l-1.3 8.7h3.5c1.767 0 3.033-0.427 3.8-1.28 0.767-0.847 1.15-1.97 1.15-3.37v0c0-2.7-1.133-4.05-3.4-4.05zM52.95-36.35v0c8.033 0 12.05 3.283 12.05 9.85v0c0 1.1-0.117 2.283-0.35 3.55v0l-1.75 10c-0.8 4.633-2.533 8.067-5.2 10.3-2.667 2.233-6.417 3.35-11.25 3.35-4.833 0-8.2-1.117-10.1-3.35v0c-1.3-1.533-1.95-3.65-1.95-6.35v0c0-1.2 0.133-2.517 0.4-3.95v0l1.75-10c1.567-8.933 7.033-13.4 16.4-13.4zM47.8-7.05v0c1.667 0 3-0.433 4-1.3 1-0.867 1.7-2.467 2.1-4.8v0l1.7-9.6c0.1-0.667 0.15-1.267 0.15-1.8v0c0-2.7-1.367-4.05-4.1-4.05v0c-3.433 0.067-5.483 2.017-6.15 5.85v0l-1.7 9.6c-0.133 0.833-0.2 1.7-0.2 2.6v0c0 2.333 1.4 3.5 4.2 3.5zM91.53-2.63c-2.653 2.22-6.397 3.33-11.23 3.33-4.833 0-8.183-1.117-10.05-3.35v0c-1.333-1.533-2-3.65-2-6.35v0c0-1.2 0.133-2.517 0.4-3.95v0l4.05-23.05h9l-4.05 22.85c-0.133 0.833-0.2 1.7-0.2 2.6v0c0 2.333 1.4 3.5 4.2 3.5v0c1.667 0 3-0.433 4-1.3 1-0.867 1.7-2.467 2.1-4.8v0l4.05-22.85h9l-4.05 23.05c-0.833 4.667-2.573 8.107-5.22 10.32zM138.3-36l-1.4 7.8h-12.3l-4.95 28.2h-9.05l4.95-28.2h-12.35l1.4-7.8zM162.55-7.8l-1.4 7.8h-25.1l6.35-36h25.1l-1.4 7.8h-16.1l-1.15 6.75h13.3l-1.4 7.8h-13.3l-1 5.85z" data-fill-palette-color="primary" fill="#000000" opacity="1"></path><path d="M7.3 4.05h14.5c3.8 0 6.5 0.833 8.1 2.5v0c1.2 1.267 1.8 2.867 1.8 4.8v0c0 0.667-0.067 1.367-0.2 2.1v0l-0.45 2.4c-0.367 1.9-1.073 3.383-2.12 4.45-1.053 1.067-1.98 1.6-2.78 1.6v0l-0.05 0.4c0.933 0 1.883 0.517 2.85 1.55 0.967 1.033 1.45 2.25 1.45 3.65v0c0 0.567-0.067 1.167-0.2 1.8v0l-0.3 1.55c-0.533 2.867-1.807 5.117-3.82 6.75-2.02 1.633-4.83 2.45-8.43 2.45v0h-16.7zM17.3 25.35v0h-4.75l-1.2 6.9h4.75c0.067 0 0.133 0 0.2 0v0c1.533 0 2.75-0.36 3.65-1.08 0.9-0.713 1.35-1.587 1.35-2.62v0c0-2.133-1.333-3.2-4-3.2zM18.65 11.85v0h-3.75l-1.3 7.45h3.7c3.2 0 4.8-1.4 4.8-4.2v0c0-0.967-0.29-1.75-0.87-2.35-0.587-0.6-1.447-0.9-2.58-0.9zM58.63 37.42c-2.653 2.22-6.397 3.33-11.23 3.33-4.833 0-8.183-1.117-10.05-3.35v0c-1.333-1.533-2-3.65-2-6.35v0c0-1.2 0.133-2.517 0.4-3.95v0l4.05-23.05h9l-4.05 22.85c-0.133 0.833-0.2 1.7-0.2 2.6v0c0 2.333 1.4 3.5 4.2 3.5v0c1.667 0 3-0.433 4-1.3 1-0.867 1.7-2.467 2.1-4.8v0l4.05-22.85h9l-4.05 23.05c-0.833 4.667-2.573 8.107-5.22 10.32zM74.7 4.05h14c4.367 0 7.483 1.1 9.35 3.3v0c1.367 1.667 2.05 3.75 2.05 6.25v0c0 0.9-0.083 1.85-0.25 2.85v0l-1.95 11.15c-0.667 3.767-2.3 6.783-4.9 9.05-2.6 2.267-5.967 3.4-10.1 3.4v0h-14.55zM85.55 11.85v0h-3.25l-3.55 20.4h4.75c1.567 0 2.793-0.427 3.68-1.28 0.88-0.847 1.487-2.237 1.82-4.17v0l1.45-8.2c0.133-0.733 0.2-1.4 0.2-2v0c0-3.167-1.7-4.75-5.1-4.75zM108.15 4.05h14c4.367 0 7.483 1.1 9.35 3.3v0c1.367 1.667 2.05 3.75 2.05 6.25v0c0 0.9-0.083 1.85-0.25 2.85v0l-1.95 11.15c-0.667 3.767-2.3 6.783-4.9 9.05-2.6 2.267-5.967 3.4-10.1 3.4v0h-14.55zM119 11.85v0h-3.25l-3.55 20.4h4.75c1.567 0 2.793-0.427 3.68-1.28 0.88-0.847 1.487-2.237 1.82-4.17v0l1.45-8.2c0.133-0.733 0.2-1.4 0.2-2v0c0-3.167-1.7-4.75-5.1-4.75zM149.8 16.7h1.15l8.45-12.65h9l-15.4 22.15-2.45 13.85h-9.05l2.45-13.85-7.6-22.15h9.55z" data-fill-palette-color="primary" fill="#000000" opacity="1"></path></g></svg></g></svg></g></svg></g></svg></g><g transform="matrix(1,0,0,1,0,1.7165495384255536)"><svg viewBox="0 0 244.43136000000004 186.71057222801602" height="186.71057222801602" width="244.43136000000004"><g><svg xmlns="http://www.w3.org/2000/svg" xmlns:xlink="http://www.w3.org/1999/xlink" version="1.1" x="0" y="0" viewBox="0.00010442733764648438 11.806999206542969 99.99989318847656 76.38560485839844" enable-background="new 0 0 100 100" xml:space="preserve" height="186.71057222801602" width="244.43136000000004" class="icon-icon-0" data-fill-palette-color="accent" id="icon-0"><g fill="#232b2b" data-fill-palette-color="accent"><g fill="#232b2b" data-fill-palette-color="accent"><path fill="#000000" d="M12.07 69.712l-8.933 8.379c-2.819 2.645-3.946 6.022-2.518 7.546 1.427 1.521 4.871 0.613 7.689-2.033l5.979-5.608L12.07 69.712z" data-fill-palette-color="accent"></path></g><circle fill="#000000" cx="12.247" cy="18.383" r="6.6" data-fill-palette-color="accent"></circle><rect x="46.491" y="52.005" transform="matrix(-0.8997 0.4364 -0.4364 -0.8997 138.1201 95.018)" fill="#000000" width="23.308" height="22.741" data-fill-palette-color="accent"></rect><path fill="#000000" d="M69.668 72.962l-18.023 8.745L34.374 46.108c0.757-0.697 1.235-1.694 1.235-2.806 0-2.109-1.711-3.819-3.82-3.819h-4.406l-9.857-9.256c0 0 0 0 0 0-1.029-1.372-2.581-2.328-4.36-2.574-0.03-0.005-0.062-0.008-0.092-0.012-0.083-0.01-0.167-0.02-0.25-0.026-0.058-0.005-0.114-0.01-0.173-0.013-0.115-0.007-0.231-0.011-0.348-0.012-0.013 0-0.023-0.001-0.036-0.001-0.001 0-0.003 0-0.005 0s-0.004 0-0.006 0c-3.637 0-6.584 2.947-6.584 6.584v22.383h4.773l5.578 21.438 0.031-0.009 1.978 7.377c0.546 2.038 2.643 3.246 4.687 2.699 2.041-0.547 3.254-2.642 2.708-4.681l-1.976-7.377-4.659-19.447h0.05V41.426l5.312 5.696h7.638c0.041 0 0.079-0.004 0.12-0.006l17.344 35.752 1.161 2.392 20.415-9.906L69.668 72.962z" data-fill-palette-color="accent"></path><path d="M100 56.643V34.174h-0.024c-0.013-3.617-2.948-6.545-6.568-6.545-3.619 0-6.555 2.928-6.567 6.545h-0.008v22.443 0.025 26.942c0 2.545 2.063 4.608 4.607 4.608 2.544 0 4.607-2.063 4.607-4.608 0-0.003-0.001-0.006-0.001-0.01V56.643H100z" fill="#000000" data-fill-palette-color="accent"></path><path fill="#000000" d="M97.295 13.08c-1.089-0.8-2.433-1.273-3.888-1.273-1.454 0-2.798 0.474-3.887 1.273-1.63 1.196-2.688 3.126-2.688 5.303 0 3.632 2.944 6.576 6.575 6.576 3.633 0 6.577-2.944 6.577-6.576C99.984 16.206 98.925 14.276 97.295 13.08z" data-fill-palette-color="accent"></path><circle fill="#000000" cx="39.428" cy="81.581" r="6.6" data-fill-palette-color="accent"></circle></g></svg></g></svg></g></svg></g></svg><rect width="395.52" height="109.12608291170257" fill="none" stroke="none" visibility="hidden"></rect></g></svg></g></svg>